<?xml version="1.0" encoding="UTF-8" standalone="no"?>
<svg
   xmlns:dc="http://purl.org/dc/elements/1.1/"
   xmlns:cc="http://creativecommons.org/ns#"
   xmlns:rdf="http://www.w3.org/1999/02/22-rdf-syntax-ns#"
   xmlns:svg="http://www.w3.org/2000/svg"
   xmlns="http://www.w3.org/2000/svg"
   xmlns:sodipodi="http://sodipodi.sourceforge.net/DTD/sodipodi-0.dtd"
   xmlns:inkscape="http://www.inkscape.org/namespaces/inkscape"
   inkscape:version="1.0 (4035a4fb49, 2020-05-01)"
   sodipodi:docname="Car-Logo-f.svg"
   version="1.1"
   width="512"
   viewBox="0 0 512 202"
   height="202"
   enable-background="new 0 0 512 512"
   id="Capa_1">
  <metadata
     id="metadata15">
    <rdf:RDF>
      <cc:Work
         rdf:about="">
        <dc:format>image/svg+xml</dc:format>
        <dc:type
           rdf:resource="http://purl.org/dc/dcmitype/StillImage" />
        <dc:title></dc:title>
      </cc:Work>
    </rdf:RDF>
  </metadata>
  <defs
     id="defs13" />
  <sodipodi:namedview
     units="mm"
     inkscape:current-layer="Capa_1"
     inkscape:window-maximized="1"
     inkscape:window-y="304"
     inkscape:window-x="1912"
     inkscape:cy="351.16009"
     inkscape:cx="237.95514"
     inkscape:zoom="0.62700484"
     showgrid="false"
     id="namedview11"
     inkscape:window-height="706"
     inkscape:window-width="1366"
     inkscape:pageshadow="2"
     inkscape:pageopacity="0"
     guidetolerance="10"
     gridtolerance="10"
     objecttolerance="10"
     borderopacity="1"
     bordercolor="#666666"
     pagecolor="#ffffff" />
  <g
     transform="translate(0,-155.222)"
     id="g8">
    <circle
       id="circle2"
       r="52.151001"
       cy="304.62701"
       cx="52.151001" />
    <circle
       id="circle4"
       r="52.151001"
       cy="304.62701"
       cx="397.04401" />
    <path
       id="path6"
       d="M 442.396,201.688 322.64,185.069 c -6.793,-0.943 -13.397,-0.298 -19.473,1.62 l -31.467,-31.467 -21.213,21.213 28.638,28.638 c -4.448,6.899 -7.062,15.125 -7.062,24.039 v 2.526 h -64.064 c -24.609,0 -44.559,-19.95 -44.559,-44.559 v -9.028 h -57.169 c -34.992,0 -65.356,19.798 -80.515,48.801 8.29,-2.821 17.162,-4.375 26.394,-4.375 45.298,0 82.151,36.853 82.151,82.151 0,4.353 -0.347,8.625 -1.003,12.797 h 182.595 c -0.655,-4.172 -1.003,-8.444 -1.003,-12.797 0,-45.298 36.853,-82.151 82.151,-82.151 45.298,0 82.151,36.853 82.151,82.151 0,4.353 -0.347,8.625 -1.003,12.797 H 512 V 281.62 c 0,-40.283 -29.705,-74.395 -69.604,-79.932 z" />
  </g>
</svg>
