<?xml version="1.0" encoding="UTF-8" standalone="no"?>
<svg
   xmlns:dc="http://purl.org/dc/elements/1.1/"
   xmlns:cc="http://creativecommons.org/ns#"
   xmlns:rdf="http://www.w3.org/1999/02/22-rdf-syntax-ns#"
   xmlns:svg="http://www.w3.org/2000/svg"
   xmlns="http://www.w3.org/2000/svg"
   xmlns:sodipodi="http://sodipodi.sourceforge.net/DTD/sodipodi-0.dtd"
   xmlns:inkscape="http://www.inkscape.org/namespaces/inkscape"
   id="Capa_1"
   enable-background="new 0 0 512 512"
   height="202"
   viewBox="0 0 512 202"
   width="512"
   version="1.1"
   sodipodi:docname="Car-Logo-f-wh.svg"
   inkscape:version="1.0 (4035a4fb49, 2020-05-01)">
  <metadata
     id="metadata15">
    <rdf:RDF>
      <cc:Work
         rdf:about="">
        <dc:format>image/svg+xml</dc:format>
        <dc:type
           rdf:resource="http://purl.org/dc/dcmitype/StillImage" />
        <dc:title></dc:title>
      </cc:Work>
    </rdf:RDF>
  </metadata>
  <defs
     id="defs13" />
  <sodipodi:namedview
     inkscape:document-rotation="0"
     pagecolor="#ffffff"
     bordercolor="#666666"
     borderopacity="1"
     objecttolerance="10"
     gridtolerance="10"
     guidetolerance="10"
     inkscape:pageopacity="0"
     inkscape:pageshadow="2"
     inkscape:window-width="1920"
     inkscape:window-height="1058"
     id="namedview11"
     showgrid="false"
     inkscape:zoom="0.62700484"
     inkscape:cx="237.95514"
     inkscape:cy="95.978647"
     inkscape:window-x="-8"
     inkscape:window-y="-8"
     inkscape:window-maximized="1"
     inkscape:current-layer="Capa_1"
     units="mm" />
  <g
     id="g8"
     transform="translate(0,-155.222)">
    <circle
       cx="52.151001"
       cy="304.62701"
       r="52.151001"
       id="circle2" />
    <circle
       cx="397.04401"
       cy="304.62701"
       r="52.151001"
       id="circle4" />
    <path
       d="M 442.396,201.688 322.64,185.069 c -6.793,-0.943 -13.397,-0.298 -19.473,1.62 l -31.467,-31.467 -21.213,21.213 28.638,28.638 c -4.448,6.899 -7.062,15.125 -7.062,24.039 v 2.526 h -64.064 c -24.609,0 -44.559,-19.95 -44.559,-44.559 v -9.028 h -57.169 c -34.992,0 -65.356,19.798 -80.515,48.801 8.29,-2.821 17.162,-4.375 26.394,-4.375 45.298,0 82.151,36.853 82.151,82.151 0,4.353 -0.347,8.625 -1.003,12.797 h 182.595 c -0.655,-4.172 -1.003,-8.444 -1.003,-12.797 0,-45.298 36.853,-82.151 82.151,-82.151 45.298,0 82.151,36.853 82.151,82.151 0,4.353 -0.347,8.625 -1.003,12.797 H 512 V 281.62 c 0,-40.283 -29.705,-74.395 -69.604,-79.932 z"
       id="path6" />
  </g>
  <path
     style="fill:#cccccc;stroke-width:1.59488"
     d="m 134.80625,152.16954 c 1.99495,-38.48301 -25.7764,-74.31517 -64.712631,-83.495866 -10.708596,-2.524958 -32.33693,-2.330861 -39.321624,0.352881 -2.987395,1.147852 -2.987395,1.080843 0,-4.023695 8.544295,-14.599569 30.037619,-31.084742 48.377144,-37.104806 9.151267,-3.003959 15.056453,-3.525902 46.520931,-4.111858 l 36.03915,-0.671148 1.00156,10.725487 c 1.25492,13.438646 5.59687,22.533062 14.81443,31.029511 12.40229,11.432043 14.25984,11.840762 56.6417,12.463011 l 37.67875,0.5532 1.12898,-7.700089 c 0.62096,-4.235049 2.42656,-10.664008 4.01244,-14.286577 l 2.88346,-6.58649 -14.17463,-14.108955 -14.17463,-14.108953 9.92586,-10.014867 9.92584,-10.0148664 15.45334,15.3953594 15.45336,15.395358 7.28907,-0.999078 c 7.0624,-0.968012 124.22022,14.2625 141.3034,18.36944 12.89214,3.099371 28.10956,12.211837 37.88231,22.684579 16.9532,18.167517 22.66227,35.552192 22.69971,69.123002 l 0.0236,21.13221 h -15.94884 -15.94884 v -12.39487 c 0,-62.901741 -65.99224,-102.627806 -121.84431,-73.347953 -12.92046,6.773412 -27.99266,22.130957 -34.27883,34.927803 -6.25205,12.72743 -10.29783,31.37854 -9.20642,42.44188 l 0.82603,8.37314 -90.39443,0.003 -90.39443,0.003 0.51857,-10.00349 z"
     id="path17" />
  <path
     style="fill:#cccccc;stroke-width:1.59488"
     d="m 383.88702,198.95213 c -38.11437,-11.63589 -50.33213,-58.04072 -22.55402,-85.66348 9.20418,-9.15271 19.37643,-13.63657 32.92077,-14.511271 19.99039,-1.290991 37.81803,8.734571 47.90027,26.937231 4.31324,7.78719 4.7309,9.87889 4.7309,23.69265 0,13.81375 -0.41766,15.90546 -4.7309,23.69265 -9.36559,16.9088 -26.91811,27.48116 -45.16905,27.20655 -5.01092,-0.0754 -10.905,-0.68484 -13.09797,-1.35433 z"
     id="path19" />
  <path
     style="fill:#cccccc;stroke-width:1.59488"
     d="M 36.834363,198.27719 C 26.671147,194.94793 15.869077,186.65046 9.9105684,177.59603 -7.3182614,151.41543 2.2499244,117.05319 30.66181,103.07206 c 6.529839,-3.213257 10.330406,-3.903648 21.489339,-3.903648 11.158933,0 14.959501,0.690391 21.48934,3.903648 10.118093,4.97898 19.866875,14.72777 24.845862,24.84586 5.605939,11.39216 5.605939,31.58652 0,42.97868 -4.972813,10.10554 -14.756482,19.89825 -24.67875,24.70153 -9.46831,4.58353 -27.230525,5.87057 -36.973238,2.67906 z"
     id="path21" />
  <path
     id="path13"
     d="m 135.08512,148.89929 c 0,-23.75703 -8.20756,-42.74887 -25.54095,-59.100308 C 90.688511,72.011511 73.039321,65.647674 45.61846,66.74904 l -15.517382,0.623261 3.04589,-4.277558 C 38.123255,56.106192 51.737959,43.717808 60.564237,38.147034 77.442567,27.494147 82.832293,26.348892 123.04695,24.870173 c 20.13318,-0.740311 36.86298,-1.088827 37.17733,-0.774482 0.31434,0.314346 1.25607,5.405242 2.09273,11.313103 1.78986,12.638722 4.47634,18.836448 11.94913,27.566722 10.60019,12.383936 15.42679,13.598143 58.90435,14.81833 40.37506,1.133117 40.59582,1.099819 40.64512,-6.13083 0.0128,-1.970176 1.54368,-7.972158 3.40055,-13.337737 l 3.37613,-9.755596 -13.75209,-13.816101 -13.75208,-13.816099 9.2186,-9.122426 9.21862,-9.1224244 15.08392,15.1468934 c 13.77116,13.828665 15.50282,15.069156 19.89723,14.253651 6.79206,-1.260455 94.35069,9.298228 133.65117,16.116972 18.39378,3.191375 33.64689,10.834995 45.95553,23.029194 17.8531,17.6871 23.25118,33.281957 24.15905,69.794777 l 0.52545,21.13221 h -15.60881 -15.60881 l -0.0391,-13.15779 c -0.0471,-15.92477 -1.86113,-24.3768 -7.94899,-37.03671 -13.40046,-27.866725 -42.28614,-45.498538 -74.53892,-45.498538 -24.97837,0 -43.39237,7.919823 -60.44621,25.997782 -15.5159,16.447666 -22.89474,35.162886 -22.89474,58.068716 v 11.62654 h -89.3135 -89.31351 z"
     style="fill:#ffffff;stroke-width:1.59488" />
  <path
     id="path15"
     d="M 32.215101,195.19489 C 27.82917,193.08291 21.235336,188.33641 17.562136,184.64713 -1.8292449,165.17082 -2.3506189,134.35777 16.385024,115.08021 26.691503,104.47563 37.311432,99.997017 52.151152,99.997017 c 14.59452,0 24.59962,4.137713 34.817972,14.399333 11.470302,11.51888 13.817176,17.46555 13.817176,35.01091 0,17.5262 -2.361175,23.52566 -13.735333,34.89982 -10.257951,10.25795 -17.403265,13.27668 -33.276558,14.05859 -11.901094,0.58624 -14.573285,0.19324 -21.559308,-3.17078 z"
     style="fill:#ffffff;stroke-width:1.59488" />
  <path
     id="path18"
     d="m 376.3846,194.79796 c -32.79933,-16.3446 -38.74263,-58.19656 -11.71515,-82.49659 9.76252,-8.77734 19.45468,-12.335513 33.60091,-12.335513 18.55948,0 35.88827,11.452773 44.61978,29.489653 4.50101,9.29784 4.50101,30.60566 0,39.9035 -5.16979,10.67935 -13.69951,19.34816 -24.20138,24.596 -8.36634,4.18071 -11.56917,4.89366 -21.98425,4.89366 -9.85797,0 -13.74691,-0.77525 -20.31991,-4.05071 z"
     style="fill:#ffffff;stroke-width:1.59488" />
</svg>
