<?xml version="1.0" encoding="UTF-8" standalone="no"?>
<svg
   xmlns:dc="http://purl.org/dc/elements/1.1/"
   xmlns:cc="http://creativecommons.org/ns#"
   xmlns:rdf="http://www.w3.org/1999/02/22-rdf-syntax-ns#"
   xmlns:svg="http://www.w3.org/2000/svg"
   xmlns="http://www.w3.org/2000/svg"
   xmlns:sodipodi="http://sodipodi.sourceforge.net/DTD/sodipodi-0.dtd"
   xmlns:inkscape="http://www.inkscape.org/namespaces/inkscape"
   inkscape:version="1.0 (4035a4fb49, 2020-05-01)"
   sodipodi:docname="Car-Logo-f-gr.svg"
   version="1.1"
   width="512"
   viewBox="0 0 512 202"
   height="202"
   enable-background="new 0 0 512 512"
   id="Capa_1">
  <metadata
     id="metadata15">
    <rdf:RDF>
      <cc:Work
         rdf:about="">
        <dc:format>image/svg+xml</dc:format>
        <dc:type
           rdf:resource="http://purl.org/dc/dcmitype/StillImage" />
        <dc:title></dc:title>
      </cc:Work>
    </rdf:RDF>
  </metadata>
  <defs
     id="defs13" />
  <sodipodi:namedview
     units="mm"
     inkscape:current-layer="Capa_1"
     inkscape:window-maximized="0"
     inkscape:window-y="180"
     inkscape:window-x="320"
     inkscape:cy="351.16009"
     inkscape:cx="237.95514"
     inkscape:zoom="0.62700484"
     showgrid="false"
     id="namedview11"
     inkscape:window-height="510"
     inkscape:window-width="742"
     inkscape:pageshadow="2"
     inkscape:pageopacity="0"
     guidetolerance="10"
     gridtolerance="10"
     objecttolerance="10"
     borderopacity="1"
     bordercolor="#666666"
     pagecolor="#ffffff" />
  <g
     transform="translate(0,-155.222)"
     id="g8">
    <circle
       id="circle2"
       r="52.151001"
       cy="304.62701"
       cx="52.151001" />
    <circle
       id="circle4"
       r="52.151001"
       cy="304.62701"
       cx="397.04401" />
    <path
       id="path6"
       d="M 442.396,201.688 322.64,185.069 c -6.793,-0.943 -13.397,-0.298 -19.473,1.62 l -31.467,-31.467 -21.213,21.213 28.638,28.638 c -4.448,6.899 -7.062,15.125 -7.062,24.039 v 2.526 h -64.064 c -24.609,0 -44.559,-19.95 -44.559,-44.559 v -9.028 h -57.169 c -34.992,0 -65.356,19.798 -80.515,48.801 8.29,-2.821 17.162,-4.375 26.394,-4.375 45.298,0 82.151,36.853 82.151,82.151 0,4.353 -0.347,8.625 -1.003,12.797 h 182.595 c -0.655,-4.172 -1.003,-8.444 -1.003,-12.797 0,-45.298 36.853,-82.151 82.151,-82.151 45.298,0 82.151,36.853 82.151,82.151 0,4.353 -0.347,8.625 -1.003,12.797 H 512 V 281.62 c 0,-40.283 -29.705,-74.395 -69.604,-79.932 z" />
  </g>
  <path
     id="path17"
     d="m 134.80625,152.16954 c 1.99495,-38.48301 -25.7764,-74.31517 -64.712631,-83.495866 -10.708596,-2.524958 -32.33693,-2.330861 -39.321624,0.352881 -2.987395,1.147852 -2.987395,1.080843 0,-4.023695 8.544295,-14.599569 30.037619,-31.084742 48.377144,-37.104806 9.151267,-3.003959 15.056453,-3.525902 46.520931,-4.111858 l 36.03915,-0.671148 1.00156,10.725487 c 1.25492,13.438646 5.59687,22.533062 14.81443,31.029511 12.40229,11.432043 14.25984,11.840762 56.6417,12.463011 l 37.67875,0.5532 1.12898,-7.700089 c 0.62096,-4.235049 2.42656,-10.664008 4.01244,-14.286577 l 2.88346,-6.58649 -14.17463,-14.108955 -14.17463,-14.108953 9.92586,-10.014867 9.92584,-10.0148664 15.45334,15.3953594 15.45336,15.395358 7.28907,-0.999078 c 7.0624,-0.968012 124.22022,14.2625 141.3034,18.36944 12.89214,3.099371 28.10956,12.211837 37.88231,22.684579 16.9532,18.167517 22.66227,35.552192 22.69971,69.123002 l 0.0236,21.13221 h -15.94884 -15.94884 v -12.39487 c 0,-62.901741 -65.99224,-102.627806 -121.84431,-73.347953 -12.92046,6.773412 -27.99266,22.130957 -34.27883,34.927803 -6.25205,12.72743 -10.29783,31.37854 -9.20642,42.44188 l 0.82603,8.37314 -90.39443,0.003 -90.39443,0.003 0.51857,-10.00349 z"
     style="fill:#cccccc;stroke-width:1.59488" />
  <path
     id="path19"
     d="m 383.88702,198.95213 c -38.11437,-11.63589 -50.33213,-58.04072 -22.55402,-85.66348 9.20418,-9.15271 19.37643,-13.63657 32.92077,-14.511271 19.99039,-1.290991 37.81803,8.734571 47.90027,26.937231 4.31324,7.78719 4.7309,9.87889 4.7309,23.69265 0,13.81375 -0.41766,15.90546 -4.7309,23.69265 -9.36559,16.9088 -26.91811,27.48116 -45.16905,27.20655 -5.01092,-0.0754 -10.905,-0.68484 -13.09797,-1.35433 z"
     style="fill:#cccccc;stroke-width:1.59488" />
  <path
     id="path21"
     d="M 36.834363,198.27719 C 26.671147,194.94793 15.869077,186.65046 9.9105684,177.59603 -7.3182614,151.41543 2.2499244,117.05319 30.66181,103.07206 c 6.529839,-3.213257 10.330406,-3.903648 21.489339,-3.903648 11.158933,0 14.959501,0.690391 21.48934,3.903648 10.118093,4.97898 19.866875,14.72777 24.845862,24.84586 5.605939,11.39216 5.605939,31.58652 0,42.97868 -4.972813,10.10554 -14.756482,19.89825 -24.67875,24.70153 -9.46831,4.58353 -27.230525,5.87057 -36.973238,2.67906 z"
     style="fill:#cccccc;stroke-width:1.59488" />
</svg>
