<svg id="Capa_1" enable-background="new 0 0 512 512" height="512" viewBox="0 0 512 512" width="512" xmlns="http://www.w3.org/2000/svg"><g><circle cx="52.151" cy="304.627" r="52.151"/><circle cx="397.044" cy="304.627" r="52.151"/><path d="m442.396 201.688-119.756-16.619c-6.793-.943-13.397-.298-19.473 1.62l-31.467-31.467-21.213 21.213 28.638 28.638c-4.448 6.899-7.062 15.125-7.062 24.039v2.526h-64.064c-24.609 0-44.559-19.95-44.559-44.559v-9.028h-57.169c-34.992 0-65.356 19.798-80.515 48.801 8.29-2.821 17.162-4.375 26.394-4.375 45.298 0 82.151 36.853 82.151 82.151 0 4.353-.347 8.625-1.003 12.797h182.595c-.655-4.172-1.003-8.444-1.003-12.797 0-45.298 36.853-82.151 82.151-82.151s82.151 36.853 82.151 82.151c0 4.353-.347 8.625-1.003 12.797h33.811v-35.805c0-40.283-29.705-74.395-69.604-79.932z"/></g></svg>