<?xml version="1.0" encoding="iso-8859-1"?>
<!-- Generator: Adobe Illustrator 19.0.0, SVG Export Plug-In . SVG Version: 6.00 Build 0)  -->
<svg version="1.1" id="Capa_1" xmlns="http://www.w3.org/2000/svg" xmlns:xlink="http://www.w3.org/1999/xlink" x="0px" y="0px"
	 viewBox="0 0 512 512" style="enable-background:new 0 0 512 512;" xml:space="preserve">
<path style="fill:#A6A6A6;" d="M255.998,31.004C131.739,31.004,31,131.733,31,256.002C31,380.261,131.739,481,255.998,481
	c124.269,0,224.998-100.739,224.998-224.998C480.995,131.733,380.266,31.004,255.998,31.004z M255.998,431
	C159.349,431,81,352.651,81,256.001c0-96.649,78.349-174.999,174.998-174.999s174.998,78.349,174.998,174.999
	S352.647,431,255.998,431z"/>
<g>
	<path style="fill:#8C8C8C;" d="M243.498,81.453c-4.13-0.291-8.296-0.449-12.5-0.449C134.349,81.003,56,159.353,56,256.002
		S134.349,431,230.998,431c4.204,0,8.37-0.158,12.5-0.449C152.684,424.141,81,348.447,81,256.002
		C80.999,163.557,152.684,87.863,243.498,81.453z"/>
	<path style="fill:#8C8C8C;" d="M255.998,31.004c-4.195,0-8.361,0.125-12.499,0.351c118.452,6.487,212.497,104.574,212.497,224.647
		c0,120.064-94.045,218.16-212.497,224.647c4.139,0.227,8.304,0.351,12.499,0.351c124.269,0,224.998-100.739,224.998-224.998
		C480.995,131.733,380.266,31.004,255.998,31.004z"/>
</g>
<rect x="7.5" y="189.16" style="fill:#CCCCCC;" width="497" height="133.68"/>
<rect x="479.5" y="189.16" style="fill:#8C8C8C;" width="25" height="133.68"/>
<path d="M504.5,181.656h-28.148c-14.952-44.235-43.625-83.824-81.206-111.939C354.731,39.481,306.615,23.5,256,23.5
	c-78.348,0-150.932,39.087-194.161,104.557c-2.282,3.457-1.33,8.109,2.126,10.392c3.455,2.282,8.108,1.331,10.392-2.126
	C114.801,75.069,182.705,38.5,256,38.5c47.352,0,92.36,14.948,130.161,43.228c33.801,25.287,59.895,60.489,74.29,99.928h-37.758
	c-13.819-30.968-35.872-57.378-64.061-76.583C328.315,84.418,292.826,73.5,256,73.5s-72.315,10.918-102.633,31.573
	c-28.189,19.205-50.241,45.615-64.061,76.583H51.539c2.21-6.074,4.691-12.063,7.425-17.891c1.759-3.75,0.146-8.216-3.604-9.975
	c-3.751-1.758-8.216-0.146-9.976,3.605c-3.69,7.867-6.95,16.006-9.736,24.261H7.5c-4.143,0-7.5,3.358-7.5,7.5V322.84
	c0,4.142,3.357,7.5,7.5,7.5h28.147c14.952,44.236,43.626,83.826,81.211,111.943C157.273,472.519,205.388,488.5,256,488.5
	c34.806,0,68.282-7.505,99.498-22.306c3.743-1.775,5.339-6.248,3.563-9.99c-1.774-3.744-6.251-5.338-9.989-3.563
	C319.88,466.482,288.565,473.5,256,473.5c-47.348,0-92.355-14.948-130.157-43.228c-33.804-25.289-59.9-60.492-74.296-99.932h37.758
	c13.819,30.969,35.872,57.381,64.062,76.587C183.685,427.582,219.174,438.5,256,438.5s72.315-10.918,102.633-31.573
	c28.19-19.206,50.243-45.617,64.062-76.587h37.764c-15.74,43.224-45.15,80.789-83.654,106.556
	c-3.442,2.303-4.366,6.961-2.063,10.404c1.446,2.162,3.821,3.33,6.24,3.33c1.434,0,2.884-0.411,4.164-1.268
	c42.666-28.55,74.886-70.662,91.21-119.022H504.5c4.143,0,7.5-3.358,7.5-7.5V189.156C512,185.014,508.643,181.656,504.5,181.656z
	 M161.813,117.469C189.63,98.518,222.199,88.5,256,88.5s66.37,10.018,94.188,28.969c24.006,16.356,43.167,38.397,55.941,64.187
	H105.871C118.645,155.866,137.807,133.825,161.813,117.469z M497,315.34h-26.052c-0.028,0-0.056,0-0.083,0h-53.097
	c-0.025,0-0.051,0-0.076,0H385.6c-4.143,0-7.5,3.358-7.5,7.5s3.357,7.5,7.5,7.5h20.532c-12.774,25.792-31.937,47.834-55.943,64.191
	C322.37,413.482,289.801,423.5,256,423.5s-66.37-10.018-94.188-28.969c-24.007-16.357-43.169-38.399-55.943-64.191H352
	c4.143,0,7.5-3.358,7.5-7.5s-3.357-7.5-7.5-7.5H94.31c-0.028,0-0.056,0-0.084,0H41.159c-0.042,0-0.083,0-0.125,0H15V196.656h26.014
	c0.026,0,0.052,0.006,0.078,0.006c0.025,0,0.049-0.006,0.073-0.006h52.984c0.073,0,0.146,0.001,0.219,0h323.335
	c0.027,0,0.053,0.006,0.08,0.006c0.04,0,0.081-0.005,0.121-0.006h52.931c0.025,0,0.049,0.006,0.073,0.006
	c0.026,0,0.052-0.006,0.078-0.006H497V315.34z"/>
<path d="M100.945,211.365c-4.143,0-7.5,3.358-7.5,7.5v51.812L51.1,214.357c-1.938-2.58-5.309-3.627-8.37-2.606
	c-3.061,1.022-5.124,3.887-5.124,7.114v74.267c0,4.142,3.357,7.5,7.5,7.5s7.5-3.358,7.5-7.5V241.32l42.346,56.319
	c1.443,1.921,3.683,2.993,5.995,2.993c0.793,0,1.594-0.126,2.375-0.387c3.061-1.022,5.124-3.887,5.124-7.114v-74.267
	C108.445,214.723,105.088,211.365,100.945,211.365z"/>
<path d="M466.895,211.365c-4.143,0-7.5,3.358-7.5,7.5v51.812l-42.346-56.319c-1.938-2.58-5.31-3.627-8.37-2.606
	c-3.061,1.022-5.124,3.887-5.124,7.114v74.267c0,4.142,3.357,7.5,7.5,7.5s7.5-3.358,7.5-7.5V241.32l42.346,56.319
	c1.443,1.921,3.683,2.993,5.995,2.993c0.793,0,1.594-0.126,2.375-0.387c3.061-1.022,5.124-3.887,5.124-7.114v-74.267
	C474.395,214.723,471.037,211.365,466.895,211.365z"/>
<path d="M133.063,211.365c-4.143,0-7.5,3.358-7.5,7.5v74.267c0,4.142,3.357,7.5,7.5,7.5s7.5-3.358,7.5-7.5v-74.267
	C140.563,214.723,137.205,211.365,133.063,211.365z"/>
<path d="M183.918,226.365h37.273c4.143,0,7.5-3.358,7.5-7.5s-3.357-7.5-7.5-7.5h-37.273c-14.373,0-26.066,11.693-26.066,26.066
	c0,14.374,11.693,26.067,26.066,26.067h18.706c6.103,0,11.067,4.964,11.067,11.067s-4.965,11.067-11.067,11.067h-37.272
	c-4.143,0-7.5,3.358-7.5,7.5s3.357,7.5,7.5,7.5h37.272c14.374,0,26.067-11.693,26.067-26.067s-11.693-26.067-26.067-26.067h-18.706
	c-6.102,0-11.066-4.964-11.066-11.067C172.852,231.329,177.816,226.365,183.918,226.365z"/>
<path d="M266.122,226.365h37.272c4.143,0,7.5-3.358,7.5-7.5s-3.357-7.5-7.5-7.5h-37.272c-14.374,0-26.067,11.693-26.067,26.066
	c0,14.374,11.693,26.067,26.067,26.067h18.706c6.102,0,11.066,4.964,11.066,11.067s-4.965,11.067-11.066,11.067h-37.273
	c-4.143,0-7.5,3.358-7.5,7.5s3.357,7.5,7.5,7.5h37.273c14.373,0,26.066-11.693,26.066-26.067s-11.693-26.067-26.066-26.067h-18.706
	c-6.103,0-11.067-4.964-11.067-11.067C255.055,231.329,260.02,226.365,266.122,226.365z"/>
<path d="M357.679,211.365c-19.53,0-35.42,15.889-35.42,35.42v46.347c0,4.142,3.357,7.5,7.5,7.5s7.5-3.358,7.5-7.5v-29.634h40.84
	v29.634c0,4.142,3.357,7.5,7.5,7.5s7.5-3.358,7.5-7.5v-46.347C393.099,227.254,377.209,211.365,357.679,211.365z M337.259,248.498
	v-1.713c0-11.26,9.16-20.42,20.42-20.42s20.42,9.16,20.42,20.42v1.713H337.259z"/>
<g>
</g>
<g>
</g>
<g>
</g>
<g>
</g>
<g>
</g>
<g>
</g>
<g>
</g>
<g>
</g>
<g>
</g>
<g>
</g>
<g>
</g>
<g>
</g>
<g>
</g>
<g>
</g>
<g>
</g>
</svg>
